<?xml version="1.0" encoding="UTF-8" standalone="no"?>
<svg
   width="461.67816"
   height="109.65696"
   version="1.1"
   viewBox="0 0 122.15235 29.013404"
   id="svg4209"
   sodipodi:docname="watermark.svg"
   inkscape:version="1.2.2 (b0a8486541, 2022-12-01)"
   inkscape:export-filename="watermark.png"
   inkscape:export-xdpi="96"
   inkscape:export-ydpi="96"
   xmlns:inkscape="http://www.inkscape.org/namespaces/inkscape"
   xmlns:sodipodi="http://sodipodi.sourceforge.net/DTD/sodipodi-0.dtd"
   xmlns="http://www.w3.org/2000/svg"
   xmlns:svg="http://www.w3.org/2000/svg">
  <sodipodi:namedview
     id="namedview4211"
     pagecolor="#505050"
     bordercolor="#ffffff"
     borderopacity="1"
     inkscape:showpageshadow="0"
     inkscape:pageopacity="0"
     inkscape:pagecheckerboard="1"
     inkscape:deskcolor="#505050"
     showgrid="false"
     inkscape:zoom="1.4982926"
     inkscape:cx="236.60265"
     inkscape:cy="131.48299"
     inkscape:window-width="1366"
     inkscape:window-height="687"
     inkscape:window-x="0"
     inkscape:window-y="0"
     inkscape:window-maximized="1"
     inkscape:current-layer="svg4209" />
  <defs
     id="defs4195">
    <linearGradient
       id="b"
       x1="499.95001"
       x2="499.95001"
       y1="2.0079999"
       y2="1026"
       gradientTransform="matrix(0.01449833,0,0,0.01449833,98.756118,12.136576)"
       gradientUnits="userSpaceOnUse">
      <stop
         stop-color="#fff"
         offset="0"
         id="stop4180" />
      <stop
         stop-color="#cacaca"
         offset=".57978725"
         id="stop4182" />
    </linearGradient>
    <linearGradient
       id="c"
       x1="60.997002"
       x2="60.997002"
       y1="29.790001"
       y2="104.85"
       gradientTransform="matrix(0.139099,0,0,0.13908146,97.031238,10.808016)"
       gradientUnits="userSpaceOnUse">
      <stop
         stop-color="#5c1500"
         offset="0"
         id="stop4185" />
      <stop
         stop-color="#c9d800"
         offset="1"
         id="stop4187" />
    </linearGradient>
    <linearGradient
       id="linearGradient3019"
       x1="20.5128"
       x2="130.59682"
       y1="14.006083"
       y2="46.845764"
       gradientTransform="matrix(0.86001065,0,0,0.86001065,-7.9968876,-11.681937)"
       gradientUnits="userSpaceOnUse">
      <stop
         stop-color="#5c0000"
         offset="0"
         id="stop4190" />
      <stop
         stop-color="#5c3600"
         offset="1"
         id="stop4192" />
    </linearGradient>
  </defs>
  <text
     x="9.0166521"
     y="14.178643"
     fill="url(#linearGradient3019)"
     fill-rule="evenodd"
     font-family="Nunito"
     font-size="16.99px"
     font-weight="bold"
     stroke-linejoin="round"
     stroke-width="0.158599"
     xml:space="preserve"
     id="text4199"
     style="fill:url(#linearGradient3019)"><tspan
       x="9.0166521"
       y="14.178643"
       fill="url(#linearGradient3019)"
       font-size="16.99px"
       stroke-width="0.158599"
       id="tspan4197"
       style="fill:url(#linearGradient3019)">EduChooser</tspan></text>
  <rect
     x="8.5500145"
     y="15.498173"
     width="97.542625"
     height="4.2336206"
     ry="1.6661842"
     fill="#5c0000"
     id="rect4201"
     style="stroke-width:0.860011" />
  <path
     d="m 113.06217,16.717838 q -0.13526,-0.327916 -0.30511,-0.642454 a 6.5780928,6.5780928 0 0 0 -0.20287,-0.352281 c -0.30747,-0.498545 -0.68255,-0.969582 -1.12528,-1.412279 -1.44924,-1.449235 -3.19967,-2.174261 -5.24963,-2.174261 -2.05011,0 -3.79964,0.725011 -5.24876,2.174261 -1.449258,1.449293 -2.174264,3.19895 -2.174264,5.248764 0,2.049813 0.725006,3.800516 2.174264,5.249635 1.44923,1.449237 3.19895,2.173388 5.24876,2.173388 2.04996,0 3.80052,-0.724239 5.24963,-2.173388 0.79815,-0.798935 1.3769,-1.688988 1.73542,-2.66972 0.29173,-0.799709 0.438,-1.659151 0.438,-2.579915 0,-0.706148 -0.0857,-1.376897 -0.25792,-2.012263 a 9.5624541,9.5624541 0 0 0 -0.0613,-0.213888 7.2539943,7.2539943 0 0 0 -0.22095,-0.615716 z"
     fill="url(#b)"
     image-rendering="optimizeSpeed"
     stroke-width="0.0145553"
     id="path4203"
     style="fill:url(#b)" />
  <path
     d="m 104.32464,15.386781 v 5.103102 h -2.32006 l 4.17542,4.175425 4.17542,-4.175425 h -2.31656 v -5.103102 z"
     fill="url(#c)"
     stroke-width="1.75365"
     id="path4205"
     style="fill:url(#c)" />
  <rect
     x="17.644627"
     y="21.414335"
     width="79.353394"
     height="4.2336206"
     ry="1.6661842"
     fill="#5c3600"
     id="rect4207"
     style="stroke-width:0.860011" />
</svg>
